<svg width="64" height="65" viewBox="0 0 64 65" fill="none" xmlns="http://www.w3.org/2000/svg">
<circle cx="32" cy="32.5" r="31" stroke="white" stroke-width="2"/>
<mask id="path-2-inside-1_1_690" fill="white">
<path d="M64 32.5C64 36.7023 63.1723 40.8635 61.5641 44.7459C59.956 48.6283 57.5989 52.1559 54.6274 55.1274C51.6559 58.0989 48.1283 60.456 44.2459 62.0641C40.3634 63.6723 36.2023 64.5 32 64.5V62.5001C35.9397 62.5001 39.8408 61.7241 43.4805 60.2164C47.1203 58.7088 50.4275 56.499 53.2132 53.7132C55.999 50.9275 58.2088 47.6203 59.7164 43.9805C61.2241 40.3408 62.0001 36.4397 62.0001 32.5H64Z"/>
</mask>
<path d="M64 32.5C64 36.7023 63.1723 40.8635 61.5641 44.7459C59.956 48.6283 57.5989 52.1559 54.6274 55.1274C51.6559 58.0989 48.1283 60.456 44.2459 62.0641C40.3634 63.6723 36.2023 64.5 32 64.5V62.5001C35.9397 62.5001 39.8408 61.7241 43.4805 60.2164C47.1203 58.7088 50.4275 56.499 53.2132 53.7132C55.999 50.9275 58.2088 47.6203 59.7164 43.9805C61.2241 40.3408 62.0001 36.4397 62.0001 32.5H64Z" stroke="#9CA3AF" stroke-width="4" mask="url(#path-2-inside-1_1_690)"/>
</svg>
